HIERARCHY
ROOT Hips
{
	OFFSET 0.000000 0.000000 0.000000
	CHANNELS 6 Xposition Yposition Zposition Xrotation Yrotation Zrotation
	JOINT Chest
	{
		OFFSET 0.000000 0.009282 11.569106
		CHANNELS 3 Xrotation Yrotation Zrotation
		JOINT Chest2
		{
			OFFSET 0.000000 -0.016863 9.269641
			CHANNELS 3 Xrotation Yrotation Zrotation
			JOINT Chest3
			{
				OFFSET 0.000000 0.000000 8.374491
				CHANNELS 3 Xrotation Yrotation Zrotation
				JOINT Chest4
				{
					OFFSET 0.000000 0.000000 8.374493
					CHANNELS 3 Xrotation Yrotation Zrotation
					JOINT Neck
					{
						OFFSET 0.000000 -0.000001 12.152554
						CHANNELS 3 Xrotation Yrotation Zrotation
						JOINT Head
						{
							OFFSET 0.000000 -0.040100 7.802319
							CHANNELS 3 Xrotation Yrotation Zrotation
							End Site
							{
								OFFSET 0.000000 -0.020946 14.853096
							}
						}
					}
					JOINT RightCollar
					{
						OFFSET -2.894404 0.000000 6.791374
						CHANNELS 3 Xrotation Yrotation Zrotation
						JOINT RightShoulder
						{
							OFFSET -13.574684 0.000000 0.000000
							CHANNELS 3 Xrotation Yrotation Zrotation
							JOINT RightElbow
							{
								OFFSET -23.923903 0.000000 0.000000
								CHANNELS 3 Xrotation Yrotation Zrotation
								JOINT RightWrist
								{
									OFFSET -19.846718 -0.012765 0.000000
									CHANNELS 3 Xrotation Yrotation Zrotation
									End Site
									{
										OFFSET -14.973145 0.000000 0.000000
									}
								}
							}
						}
					}
					JOINT LeftCollar
					{
						OFFSET 2.894404 0.000000 6.791374
						CHANNELS 3 Xrotation Yrotation Zrotation
						JOINT LeftShoulder
						{
							OFFSET 13.574684 0.000000 0.000000
							CHANNELS 3 Xrotation Yrotation Zrotation
							JOINT LeftElbow
							{
								OFFSET 23.923903 0.000000 0.000000
								CHANNELS 3 Xrotation Yrotation Zrotation
								JOINT LeftWrist
								{
									OFFSET 19.846718 -0.012765 0.000000
									CHANNELS 3 Xrotation Yrotation Zrotation
									End Site
									{
										OFFSET 14.973145 0.000000 0.000000
									}
								}
							}
						}
					}
				}
			}
		}
	}
	JOINT RightHip
	{
		OFFSET -9.469263 -0.004642 0.045487
		CHANNELS 3 Xrotation Yrotation Zrotation
		JOINT RightKnee
		{
			OFFSET 0.000000 -0.002666 -40.478676
			CHANNELS 3 Xrotation Yrotation Zrotation
			JOINT RightAnkle
			{
				OFFSET 0.000000 -0.049110 -35.224068
				CHANNELS 3 Xrotation Yrotation Zrotation
				JOINT RightToe
				{
					OFFSET 0.000000 -12.539530 -6.151390
					CHANNELS 3 Xrotation Yrotation Zrotation
					End Site
					{
						OFFSET 0.000000 -5.044995 -1.291870
					}
				}
			}
		}
	}
	JOINT LeftHip
	{
		OFFSET 9.469263 -0.004642 0.045487
		CHANNELS 3 Xrotation Yrotation Zrotation
		JOINT LeftKnee
		{
			OFFSET 0.000000 -0.002666 -40.478676
			CHANNELS 3 Xrotation Yrotation Zrotation
			JOINT LeftAnkle
			{
				OFFSET 0.000000 -0.049110 -35.224068
				CHANNELS 3 Xrotation Yrotation Zrotation
				JOINT LeftToe
				{
					OFFSET 0.000000 -12.539530 -6.151390
					CHANNELS 3 Xrotation Yrotation Zrotation
					End Site
					{
						OFFSET 0.000000 -5.044995 -1.291870
					}
				}
			}
		}
	}
}
MOTION
Frames: 7
Frame Time: 0.016667
-9.749522 -4.136643 82.978271 2.848171 6.885789 -112.188815 3.955923 0.903200 2.354119 1.760506 0.389143 1.058540 1.760507 0.389144 1.058537 1.321054 0.288812 0.795028 19.382216 -0.817637 -0.176947 -0.194766 -1.438485 -0.581202 -0.535021 -9.663285 -3.797658 -6.374658 -80.937332 -0.742195 8.867432 0.950979 1.142651 -5.149950 13.278761 19.909001 2.440925 10.729713 -5.871758 -63.066866 60.656062 48.173232 -4.751433 -0.376309 -8.943034 28.678243 -3.813250 -0.159462 9.726755 0.190822 0.264763 1.957708 -0.334269 -4.150231 -4.158526 -0.361664 3.907363 0.034662 0.009998 0.041156 9.946468 0.498844 0.137998 1.629685 -1.224528 3.328791 -4.456017 0.673372 -1.816307 0.013689 0.077814 -0.043168 
-9.745199 -4.093936 82.979095 2.845094 6.876241 -112.288713 3.941018 0.944151 2.399432 1.754439 0.408109 1.080983 1.754439 0.408108 1.080984 1.316550 0.302983 0.811914 19.436140 -0.815416 -0.124111 -0.094177 -1.451251 -0.483343 -0.567224 -9.701890 -3.888431 -7.134234 -80.869078 -1.692063 8.987880 0.857820 1.144913 -5.079938 13.136348 19.743539 2.670074 10.633419 -5.952740 -64.173910 59.056520 47.801926 -6.958859 0.594823 -10.081332 28.388486 -3.315613 0.875147 9.722612 0.174747 0.295469 1.941757 -0.322108 -4.095864 -4.155788 -0.358658 3.931488 0.040038 0.018886 0.041055 9.946658 0.490028 0.194789 1.652930 -1.228268 3.356032 -4.491044 0.687709 -1.829822 0.012060 0.079882 -0.042352 
-9.740009 -4.049368 82.979622 2.840175 6.866675 -112.373448 3.928354 0.980931 2.431491 1.749023 0.424208 1.097583 1.749022 0.424208 1.097578 1.312527 0.315020 0.824403 19.488596 -0.800997 -0.069497 0.003847 -1.442190 -0.378404 -0.595883 -9.729523 -3.948499 -7.761672 -80.782737 -2.505303 9.087837 0.776442 1.123439 -5.014155 13.016307 19.617748 2.864831 10.511086 -5.943870 -65.120847 57.623649 47.166117 -9.317769 1.668002 -11.230682 27.834257 -2.796856 1.922688 9.721745 0.151384 0.315794 1.919331 -0.308371 -4.041390 -4.152454 -0.353421 3.938906 0.046351 0.028423 0.039398 9.942892 0.477232 0.246739 1.679164 -1.231892 3.372654 -4.527230 0.702995 -1.809881 0.011675 0.082750 -0.041838 
-9.731903 -4.003792 82.980423 2.838497 6.858970 -112.441327 3.926557 1.019266 2.462293 1.748830 0.440048 1.113117 1.748830 0.440048 1.113114 1.312423 0.326855 0.836101 19.532401 -0.781243 -0.020637 0.085777 -1.421481 -0.282407 -0.659700 -9.768924 -4.020860 -8.140765 -80.680435 -3.076164 9.194639 0.720998 1.071641 -4.966651 12.924545 19.532895 3.052396 10.364256 -6.003204 -65.966363 56.325708 46.316691 -11.899112 2.785789 -12.382307 27.247377 -2.335367 2.894091 9.727316 0.128033 0.320674 1.891715 -0.302737 -3.986894 -4.146761 -0.346399 3.942301 0.050991 0.037256 0.037948 9.937536 0.455017 0.298408 1.706685 -1.227793 3.393463 -4.560808 0.715512 -1.811074 0.011691 0.085244 -0.041853 
-9.724301 -3.959256 82.982033 2.841618 6.859352 -112.497662 3.940655 1.055793 2.490428 1.755573 0.454765 1.126721 1.755573 0.454765 1.126721 1.317516 0.337841 0.846351 19.564783 -0.755844 0.021262 0.146484 -1.388205 -0.197541 -0.739416 -9.800488 -4.115843 -8.198027 -80.567887 -3.306073 9.304732 0.697817 0.998357 -4.923159 12.861632 19.479519 3.277930 10.208233 -6.175826 -66.952315 55.099505 45.441272 -14.526002 3.848627 -13.526746 26.660569 -2.155812 3.665401 9.745602 0.102733 0.317086 1.859122 -0.301191 -3.933154 -4.138655 -0.338510 3.950124 0.053724 0.046042 0.037036 9.945000 0.429171 0.365216 1.723941 -1.223368 3.407892 -4.588864 0.725901 -1.825827 0.012288 0.089329 -0.042274 
-9.717780 -3.914201 82.984131 2.845213 6.864884 -112.548301 3.962009 1.089876 2.526217 1.765524 0.469076 1.143974 1.765524 0.469076 1.143970 1.325019 0.348506 0.859338 19.588100 -0.730755 0.052302 0.190217 -1.352069 -0.132701 -0.823640 -9.822177 -4.232002 -8.207104 -80.459533 -3.485412 9.424609 0.716408 0.916059 -4.892072 12.828463 19.448731 3.493685 10.038821 -6.380852 -68.036983 54.020721 44.443850 -16.995609 4.798727 -14.548860 26.116268 -2.525007 4.119437 9.776454 0.076523 0.314373 1.814485 -0.295173 -3.877548 -4.125693 -0.336728 3.942998 0.055590 0.056146 0.036927 9.964163 0.403500 0.441428 1.726703 -1.218249 3.423482 -4.608214 0.738171 -1.860689 0.011564 0.091195 -0.042136 
-9.711143 -3.869262 82.985886 2.851701 6.868095 -112.592629 3.990625 1.117436 2.570414 1.778541 0.480078 1.164701 1.778541 0.480078 1.164700 1.334818 0.356674 0.874925 19.604542 -0.706209 0.070748 0.221071 -1.312963 -0.091145 -0.912040 -9.837650 -4.326953 -8.543969 -80.355666 -3.965807 9.539093 0.782503 0.810883 -4.868236 12.827637 19.418725 3.593676 9.900610 -6.593117 -69.118058 53.027885 43.295418 -18.912551 5.573323 -15.509551 25.870457 -3.512762 4.282502 9.808923 0.050335 0.296118 1.766574 -0.295707 -3.815741 -4.111960 -0.334205 3.958096 0.056712 0.065218 0.036919 9.991591 0.375635 0.519905 1.708125 -1.220809 3.440557 -4.616197 0.757438 -1.889652 0.011847 0.091162 -0.041548 
